<?xml version="1.0" encoding="utf-8" standalone="no"?>
<!DOCTYPE svg PUBLIC "-//W3C//DTD SVG 1.1//EN"
  "http://www.w3.org/Graphics/SVG/1.1/DTD/svg11.dtd">
<svg height="288pt" version="1.1" viewBox="0 0 432 288" width="432pt" xmlns="http://www.w3.org/2000/svg" xmlns:xlink="http://www.w3.org/1999/xlink">
 <metadata>
  <rdf:RDF xmlns:cc="http://creativecommons.org/ns#" xmlns:dc="http://purl.org/dc/elements/1.1/" xmlns:rdf="http://www.w3.org/1999/02/22-rdf-syntax-ns#">
   <cc:Work>
    <dc:type rdf:resource="http://purl.org/dc/dcmitype/StillImage"/>
    <dc:date>2021-07-11T13:06:49.424471</dc:date>
    <dc:format>image/svg+xml</dc:format>
    <dc:creator>
     <cc:Agent>
      <dc:title>Matplotlib v3.4.2, https://matplotlib.org/</dc:title>
     </cc:Agent>
    </dc:creator>
   </cc:Work>
  </rdf:RDF>
 </metadata>
 <defs>
  <style type="text/css">*{stroke-linecap:butt;stroke-linejoin:round;}</style>
 </defs>
 <g id="figure_1">
  <g id="patch_1">
   <path d="M 0 288 
L 432 288 
L 432 0 
L 0 0 
z
" style="fill:none;"/>
  </g>
  <g id="axes_1">
   <g id="line2d_1">
    <path clip-path="url(#p228bfdbf43)" d="M 69.218182 100.294508 
L 71.614746 100.448052 
L 74.01131 99.808962 
L 76.407874 81.093863 
L 78.804438 99.39039 
L 81.201002 85.296864 
L 83.597566 111.768932 
L 85.99413 45.128231 
L 90.787258 152.626597 
L 93.183822 101.264729 
L 95.580387 104.104802 
L 97.976951 83.609982 
L 100.373515 111.503348 
L 102.770079 112.098634 
L 105.166643 110.500385 
L 107.563207 112.789206 
L 109.959771 55.658349 
L 112.356335 111.775863 
L 114.752899 103.509523 
L 117.149463 110.308623 
L 119.546027 99.937093 
L 121.942591 63.634904 
L 124.339155 84.787994 
L 126.735719 112.01586 
L 129.132283 111.933128 
L 131.528848 71.934969 
L 133.925412 99.624006 
L 136.321976 112.017421 
L 138.71854 101.361686 
L 141.115104 111.989019 
L 143.511668 99.427562 
L 145.908232 85.650962 
L 148.304796 108.893037 
L 150.70136 81.115974 
L 153.097924 100.630173 
L 155.494488 110.657503 
L 157.891052 99.895309 
L 160.287616 65.098119 
L 162.68418 110.031015 
L 165.080744 150.799434 
L 167.477309 103.968757 
L 169.873873 100.982899 
L 172.270437 111.347184 
L 174.667001 112.155786 
L 177.063565 45.84469 
L 179.460129 45.865896 
L 181.856693 101.527533 
L 184.253257 105.097713 
L 186.649821 101.529212 
L 189.046385 117.136605 
L 191.442949 100.408623 
L 193.839513 101.445233 
L 196.236077 109.424241 
L 198.632641 111.534222 
L 201.029205 110.312782 
L 203.42577 110.128669 
L 205.822334 110.65285 
L 208.218898 88.398391 
L 210.615462 111.92543 
L 213.012026 102.873602 
L 215.40859 111.616049 
L 217.805154 101.585493 
L 220.201718 49.195319 
L 222.598282 110.005323 
L 224.994846 99.997345 
L 227.39141 83.204876 
L 229.787974 100.122509 
L 232.184538 44.443636 
L 234.581102 104.077035 
L 236.977666 99.621059 
L 239.37423 110.226956 
L 241.770795 109.856118 
L 244.167359 45.285155 
L 246.563923 101.422683 
L 248.960487 85.07415 
L 251.357051 100.020891 
L 253.753615 97.385119 
L 256.150179 100.493786 
L 258.546743 110.822654 
L 260.943307 54.486975 
L 263.339871 48.079989 
L 265.736435 88.306762 
L 268.132999 99.767728 
L 270.529563 110.559954 
L 272.926127 104.106809 
L 275.322691 49.321075 
L 277.719256 48.727502 
L 280.11582 165.002303 
L 282.512384 109.919957 
L 284.908948 111.588393 
L 287.305512 81.75914 
L 289.702076 109.21353 
L 292.09864 112.098634 
L 294.495204 103.849682 
L 296.891768 85.824556 
L 299.288332 110.993106 
L 301.684896 108.478945 
L 304.08146 110.64084 
L 306.478024 112.038773 
L 308.874588 81.119367 
L 311.271152 78.046952 
L 313.667717 108.722773 
L 316.064281 81.217362 
L 318.460845 44.503428 
L 320.857409 85.614702 
L 323.253973 110.552347 
L 325.650537 96.290361 
L 328.047101 157.362647 
L 330.443665 111.43799 
L 332.840229 100.788218 
L 335.236793 85.991128 
L 337.633357 77.417161 
L 340.029921 104.312803 
L 342.426485 111.557469 
L 344.823049 112.4388 
L 347.219613 114.924155 
L 349.616178 99.409714 
L 352.012742 48.631492 
L 354.409306 98.317394 
L 356.80587 66.557515 
L 359.202434 103.424478 
L 361.598998 48.403108 
L 363.995562 100.018376 
L 366.392126 100.354042 
L 368.78869 111.996236 
L 371.185254 45.086517 
L 373.581818 48.140694 
L 373.581818 48.140694 
" style="fill:none;stroke:#ff0000;stroke-linecap:square;stroke-width:1.5;"/>
   </g>
   <g id="line2d_2">
    <path clip-path="url(#p228bfdbf43)" d="M 69.218182 173.03052 
L 71.614746 173.569176 
L 74.01131 176.968271 
L 76.407874 159.416729 
L 78.804438 175.421684 
L 81.201002 167.929352 
L 83.597566 164.15958 
L 85.99413 147.793133 
L 88.390694 178.775077 
L 90.787258 176.289495 
L 93.183822 172.404066 
L 95.580387 168.197834 
L 97.976951 158.960167 
L 100.373515 164.720955 
L 102.770079 164.696931 
L 105.166643 161.056729 
L 107.563207 166.757021 
L 109.959771 152.903171 
L 112.356335 163.982452 
L 114.752899 169.540827 
L 117.149463 164.439072 
L 119.546027 173.299009 
L 121.942591 150.448211 
L 124.339155 166.228958 
L 126.735719 164.976035 
L 129.132283 163.36514 
L 131.528848 129.531848 
L 133.925412 177.656483 
L 136.321976 164.345556 
L 138.71854 175.244923 
L 141.115104 164.477869 
L 143.511668 174.999396 
L 145.908232 163.918341 
L 148.304796 165.306699 
L 150.70136 160.605871 
L 153.097924 173.413844 
L 155.494488 168.202628 
L 157.891052 173.332563 
L 160.287616 137.19935 
L 162.68418 163.600206 
L 165.080744 185.041832 
L 167.477309 168.233646 
L 169.873873 172.288681 
L 172.270437 162.307497 
L 174.667001 164.113328 
L 177.063565 147.77265 
L 179.460129 147.884266 
L 181.856693 157.828047 
L 184.253257 158.979917 
L 186.649821 172.531753 
L 189.046385 168.713155 
L 191.442949 173.966957 
L 193.839513 172.518087 
L 196.236077 177.021268 
L 198.632641 164.797045 
L 201.029205 162.511464 
L 203.42577 162.365024 
L 205.822334 159.427389 
L 208.218898 155.629274 
L 210.615462 164.531856 
L 213.012026 157.855275 
L 215.40859 166.258063 
L 217.805154 163.092971 
L 220.201718 152.10769 
L 222.598282 164.659366 
L 224.994846 172.878377 
L 227.39141 160.775484 
L 229.787974 175.699975 
L 232.184538 142.971135 
L 234.581102 169.690008 
L 236.977666 175.690716 
L 239.37423 162.782189 
L 241.770795 161.836998 
L 244.167359 151.163863 
L 246.563923 171.990809 
L 248.960487 169.310643 
L 251.357051 173.654921 
L 253.753615 163.815397 
L 256.150179 157.926534 
L 258.546743 167.235862 
L 260.943307 151.119884 
L 263.339871 149.095284 
L 265.736435 181.442985 
L 268.132999 174.120904 
L 270.529563 164.707554 
L 272.926127 167.838798 
L 275.322691 152.715318 
L 277.719256 149.594873 
L 280.11582 242.116364 
L 282.512384 164.226007 
L 284.908948 165.049427 
L 287.305512 147.686054 
L 289.702076 161.495169 
L 292.09864 164.618063 
L 294.495204 169.182268 
L 296.891768 161.02349 
L 299.288332 164.783248 
L 301.684896 163.312377 
L 304.08146 162.112217 
L 306.478024 163.497614 
L 308.874588 160.769803 
L 311.271152 152.476894 
L 313.667717 164.528564 
L 316.064281 159.657169 
L 318.460845 152.101686 
L 320.857409 160.501321 
L 323.253973 162.543325 
L 325.650537 154.19687 
L 328.047101 181.154365 
L 330.443665 164.986394 
L 332.840229 175.804847 
L 335.236793 162.642977 
L 337.633357 150.893535 
L 340.029921 168.028535 
L 342.426485 161.496606 
L 344.823049 164.275339 
L 347.219613 159.722768 
L 349.616178 159.525164 
L 352.012742 149.904181 
L 354.409306 178.842773 
L 356.80587 150.848558 
L 359.202434 169.347856 
L 361.598998 152.257546 
L 363.995562 175.804847 
L 366.392126 172.752603 
L 368.78869 165.459121 
L 371.185254 151.703451 
L 373.581818 151.950782 
L 373.581818 151.950782 
" style="fill:none;stroke:#008000;stroke-linecap:square;stroke-width:1.5;"/>
   </g>
   <g id="line2d_3">
    <path clip-path="url(#p228bfdbf43)" d="M 69.218182 120.169852 
L 71.614746 120.102099 
L 74.01131 120.628385 
L 76.407874 118.627587 
L 78.804438 120.162535 
L 81.201002 118.050959 
L 83.597566 122.772755 
L 85.99413 134.399872 
L 88.390694 120.690832 
L 90.787258 190.354492 
L 93.183822 120.152842 
L 95.580387 120.383155 
L 97.976951 118.371431 
L 100.373515 122.780851 
L 102.770079 123.213961 
L 105.166643 122.581906 
L 107.563207 123.392306 
L 109.959771 126.923883 
L 112.356335 122.819247 
L 114.752899 120.019093 
L 117.149463 122.141162 
L 119.546027 120.184782 
L 121.942591 124.382036 
L 124.339155 118.089803 
L 126.735719 122.712698 
L 129.132283 122.960518 
L 131.528848 131.86674 
L 133.925412 120.827075 
L 136.321976 122.625235 
L 138.71854 120.544193 
L 141.115104 122.973802 
L 145.908232 117.984226 
L 148.304796 121.655856 
L 150.70136 118.833842 
L 153.097924 120.780887 
L 155.494488 122.877547 
L 157.891052 119.923389 
L 160.287616 126.933425 
L 162.68418 122.425628 
L 165.080744 195.689362 
L 167.477309 120.320756 
L 169.873873 120.210528 
L 172.270437 122.583959 
L 174.667001 123.100922 
L 177.063565 133.157547 
L 179.460129 133.061891 
L 181.856693 120.303518 
L 184.253257 118.568522 
L 186.649821 120.186201 
L 189.046385 125.461696 
L 191.442949 120.225197 
L 193.839513 120.316408 
L 196.236077 119.819762 
L 198.632641 122.877547 
L 201.029205 122.450479 
L 203.42577 121.335916 
L 205.822334 123.382074 
L 208.218898 118.714886 
L 210.615462 122.886813 
L 213.012026 120.277778 
L 215.40859 122.961648 
L 217.805154 115.63398 
L 220.201718 130.070675 
L 222.598282 122.198243 
L 224.994846 120.186201 
L 227.39141 118.835192 
L 229.787974 120.452975 
L 232.184538 136.660636 
L 234.581102 119.765679 
L 236.977666 120.812731 
L 239.37423 122.203933 
L 241.770795 120.16432 
L 244.167359 133.502345 
L 246.563923 120.192801 
L 248.960487 117.99948 
L 251.357051 120.019934 
L 253.753615 120.184747 
L 256.150179 121.392893 
L 258.546743 122.162837 
L 260.943307 128.82897 
L 263.339871 132.007102 
L 265.736435 120.212334 
L 268.132999 120.254849 
L 270.529563 122.31239 
L 272.926127 120.437528 
L 275.322691 130.884767 
L 277.719256 131.203895 
L 280.11582 201.94067 
L 282.512384 122.152633 
L 284.908948 122.86241 
L 287.305512 119.519974 
L 289.702076 120.99977 
L 292.09864 123.108156 
L 294.495204 120.267327 
L 296.891768 118.81967 
L 299.288332 122.567072 
L 301.684896 121.398191 
L 306.478024 123.020858 
L 308.874588 118.355881 
L 311.271152 122.582863 
L 313.667717 121.835159 
L 316.064281 118.551843 
L 318.460845 133.642928 
L 320.857409 118.199858 
L 323.253973 122.067271 
L 325.650537 118.702615 
L 328.047101 189.737491 
L 330.443665 122.63497 
L 332.840229 120.675103 
L 335.236793 118.254713 
L 337.633357 117.83005 
L 340.029921 120.139593 
L 342.426485 123.140055 
L 344.823049 123.24885 
L 347.219613 123.531428 
L 349.616178 120.430728 
L 352.012742 130.592103 
L 354.409306 120.695421 
L 356.80587 122.314884 
L 359.202434 120.27031 
L 361.598998 130.49385 
L 363.995562 120.690832 
L 366.392126 120.128707 
L 368.78869 122.742806 
L 371.185254 133.474718 
L 373.581818 130.728125 
L 373.581818 130.728125 
" style="fill:none;stroke:#0000ff;stroke-linecap:square;stroke-width:1.5;"/>
   </g>
  </g>
 </g>
 <defs>
  <clipPath id="p228bfdbf43">
   <rect height="217.44" width="334.8" x="54" y="34.56"/>
  </clipPath>
 </defs>
</svg>
