<?xml version="1.0" standalone="no"?>
<!DOCTYPE svg PUBLIC "-//W3C//DTD SVG 20010904//EN"
 "http://www.w3.org/TR/2001/REC-SVG-20010904/DTD/svg10.dtd">
<svg version="1.0" xmlns="http://www.w3.org/2000/svg"
 width="899.000000pt" height="595.000000pt" viewBox="0 0 899.000000 595.000000"
 preserveAspectRatio="xMidYMid meet">
<metadata>
Created by potrace 1.16, written by Peter Selinger 2001-2019
</metadata>
<g transform="translate(0.000000,595.000000) scale(0.100000,-0.100000)"
fill="#000000" stroke="none">
<path d="M4797 5913 c-3 -4 -17 -308 -33 -675 -16 -367 -29 -666 -31 -665 -1
2 -7 36 -13 77 -16 114 -18 120 -40 120 -10 0 -21 -3 -24 -8 -2 -4 -21 -120
-41 -257 -62 -434 -57 -458 -89 385 -33 879 -34 885 -61 885 -17 0 -21 -9 -27
-55 -4 -30 -21 -381 -39 -780 -28 -655 -33 -734 -54 -820 -24 -101 -26 -101
-53 0 -14 52 -21 66 -39 68 -18 3 -24 -5 -37 -51 -9 -30 -16 -61 -16 -68 0 -7
-2 -10 -4 -8 -3 3 -16 119 -31 259 -14 140 -28 265 -30 278 -5 21 -38 31 -48
15 -3 -5 -20 -150 -38 -325 l-34 -316 -62 -1 c-35 0 -75 -7 -92 -15 -48 -25
-73 3 -111 127 -17 56 -35 112 -40 124 -9 23 -67 53 -101 53 -22 0 -24 -6 -45
-167 -10 -73 -21 -133 -24 -133 -3 0 -15 60 -25 133 -18 120 -22 132 -41 135
-16 2 -28 -7 -44 -32 -12 -20 -25 -36 -30 -36 -5 0 -17 15 -28 33 -18 30 -22
93 -52 837 -18 443 -37 815 -41 828 -7 19 -16 22 -58 22 -27 0 -52 -4 -56 -9
-3 -5 -21 -443 -40 -972 -20 -530 -38 -965 -40 -968 -11 -10 -20 16 -52 156
-31 132 -43 162 -64 163 -3 0 -26 -23 -50 -52 l-44 -52 -20 -408 c-12 -224
-23 -409 -26 -412 -6 -6 -25 315 -74 1264 -20 371 -38 685 -41 698 -5 24 -42
31 -49 10 -2 -7 -20 -247 -40 -533 -28 -409 -40 -540 -58 -614 l-22 -95 -22
100 c-13 54 -36 212 -53 349 -41 344 -37 325 -65 325 -28 0 -27 2 -52 -302 -9
-120 -19 -215 -21 -213 -2 2 -13 84 -23 182 -10 98 -21 184 -24 191 -2 6 -13
12 -24 12 -21 0 -25 -16 -51 -170 -29 -173 -81 -457 -87 -470 -3 -8 -15 26
-27 75 -20 83 -23 90 -46 90 -22 0 -26 -7 -46 -90 -11 -50 -24 -83 -27 -75
-21 50 -50 284 -77 620 -30 363 -39 430 -57 430 -29 -1 -33 -32 -67 -599 -20
-321 -38 -586 -41 -589 -3 -3 -7 -3 -10 0 -3 2 -21 184 -40 404 -36 405 -101
999 -111 1015 -3 5 -14 9 -24 9 -14 0 -20 -9 -24 -32 -3 -18 -19 -258 -36
-533 -26 -417 -35 -519 -56 -615 -14 -63 -27 -116 -29 -118 -1 -2 -12 23 -22
55 -16 48 -23 58 -43 58 -18 0 -26 -8 -36 -40 -6 -22 -13 -33 -14 -25 -1 8
-16 343 -33 744 -29 658 -34 730 -49 740 -11 7 -21 7 -27 1 -5 -6 -23 -345
-41 -775 -34 -839 -36 -878 -53 -861 -17 17 -46 13 -78 -10 -18 -12 -37 -18
-48 -14 -23 7 -21 -12 -61 464 -17 195 -33 358 -36 362 -3 5 -14 9 -24 9 -23
0 -23 0 -55 -285 -14 -126 -28 -240 -31 -253 l-5 -23 -19 23 c-15 19 -22 21
-37 12 -16 -10 -20 -49 -39 -435 -11 -233 -23 -408 -27 -389 -3 19 -29 577
-57 1240 -28 663 -53 1215 -56 1228 -5 24 -41 31 -49 10 -4 -11 -53 -1303 -56
-1484 -1 -63 -8 -9 -38 299 -1 4 -10 7 -21 7 -26 0 -34 -22 -50 -133 -8 -48
-16 -90 -20 -92 -4 -2 -12 42 -19 98 -28 233 -31 247 -57 247 -27 0 -23 21
-65 -305 -16 -132 -35 -244 -40 -250 -6 -5 -30 -10 -55 -10 -41 0 -44 -2 -44
-27 0 -26 3 -28 45 -28 25 0 61 6 79 14 31 13 35 19 41 68 4 29 14 109 24 178
l16 125 19 -155 c21 -172 28 -200 51 -200 20 0 29 26 45 127 8 46 15 81 17 80
1 -2 14 -129 28 -283 15 -153 30 -283 35 -288 18 -18 39 4 44 46 3 24 12 275
21 558 9 283 20 540 23 570 5 35 19 -211 39 -664 27 -604 30 -721 19 -730 -8
-6 -24 -70 -37 -146 l-23 -134 -22 104 c-22 113 -87 260 -113 260 -8 0 -29
-12 -48 -26 -32 -24 -35 -25 -58 -10 -33 22 -52 20 -86 -9 -27 -22 -35 -24
-94 -18 l-65 6 0 -33 c0 -28 3 -32 22 -27 11 3 43 1 69 -5 45 -11 50 -10 84
16 l35 27 30 -21 c31 -22 40 -20 76 12 21 18 21 18 51 -49 20 -43 43 -129 64
-232 20 -101 38 -165 46 -168 24 -10 41 17 48 78 4 33 9 58 12 55 5 -5 54
-1348 49 -1353 -5 -5 -13 86 -41 477 -14 195 -28 365 -31 378 -5 24 -41 31
-49 10 -3 -7 -20 -120 -40 -250 -32 -221 -37 -241 -67 -290 -18 -28 -42 -79
-53 -111 l-21 -60 -27 184 c-15 101 -33 186 -39 190 -17 11 -36 0 -41 -24 -3
-12 -18 -118 -33 -235 -27 -201 -29 -211 -44 -187 -12 21 -61 45 -92 45 -5 0
-8 -13 -8 -30 0 -23 5 -30 19 -30 11 0 36 -23 60 -55 39 -52 63 -66 75 -46 3
4 16 84 28 177 l23 169 12 -85 c33 -219 33 -220 57 -220 19 0 27 15 60 117 21
65 55 143 74 173 30 47 37 71 50 165 21 146 26 125 53 -245 11 -162 23 -299
26 -303 3 -5 16 -7 29 -4 21 4 24 0 25 -27 1 -17 4 -94 8 -171 l6 -140 25 0
25 0 9 223 8 224 64 107 c49 84 68 128 86 199 12 51 25 92 28 92 3 0 16 -23
27 -50 20 -46 24 -50 55 -50 53 0 73 9 92 41 9 16 21 29 25 29 5 0 19 -27 31
-59 22 -59 44 -81 63 -62 5 5 18 58 28 118 30 172 29 170 54 58 13 -55 40
-137 60 -182 45 -100 63 -106 96 -35 l22 47 14 -50 c8 -27 21 -74 30 -102 11
-40 19 -53 33 -53 10 0 21 4 24 8 2 4 15 108 28 229 12 122 26 217 29 211 4
-6 13 -56 20 -110 7 -54 18 -106 25 -116 12 -16 18 -15 76 16 119 61 108 33
129 322 10 139 20 254 22 256 1 2 13 -207 25 -464 13 -257 28 -471 33 -477 6
-6 15 -6 26 1 12 7 24 47 39 133 13 68 25 125 27 127 2 2 11 -37 21 -86 30
-143 61 -146 91 -7 24 112 29 117 44 45 25 -127 30 -140 54 -136 23 3 23 5 72
230 15 70 19 77 35 68 35 -19 56 -11 75 28 10 20 19 33 21 27 1 -5 15 -76 29
-157 26 -138 29 -148 50 -148 17 0 28 12 47 54 l24 55 27 -55 c29 -59 63 -74
71 -31 3 12 14 175 26 362 12 187 23 341 24 342 1 1 10 -89 19 -200 10 -111
31 -319 47 -462 18 -156 33 -352 37 -490 l8 -230 25 0 25 0 11 235 c9 201 34
439 50 490 4 10 11 7 28 -15 37 -46 51 -30 81 97 39 166 31 151 66 131 20 -12
32 -14 39 -7 6 6 24 100 40 210 39 266 39 264 54 264 8 0 24 -51 46 -141 33
-139 33 -140 69 -159 l36 -18 34 -193 c41 -240 48 -251 100 -179 l29 41 28
-61 c29 -64 43 -72 82 -44 27 19 23 22 56 -44 27 -54 50 -72 67 -55 5 5 25 90
45 188 30 152 40 184 62 207 19 21 35 28 63 28 34 0 43 6 81 53 24 29 50 64
60 77 19 30 18 32 51 -95 21 -80 26 -90 47 -90 19 0 26 10 41 54 28 81 24 84
59 -36 26 -91 43 -95 99 -20 32 41 44 71 60 140 10 49 21 90 23 93 3 2 12 -40
22 -94 10 -53 36 -162 59 -241 56 -198 79 -202 112 -19 l19 103 26 -155 c23
-143 27 -155 47 -158 29 -4 28 -12 53 332 11 159 21 291 23 292 2 2 11 -92 21
-209 16 -206 18 -215 58 -314 31 -81 44 -103 59 -103 25 0 23 -6 62 205 l33
180 36 17 c35 17 38 22 55 100 10 46 19 76 20 68 2 -8 14 -111 27 -228 14
-116 28 -217 31 -222 11 -18 35 -11 60 17 13 16 25 26 27 23 3 -3 17 -26 32
-52 17 -31 34 -48 46 -48 21 0 23 4 65 185 14 61 35 135 47 165 l22 54 26
-104 c24 -98 28 -105 51 -105 24 0 24 2 60 238 19 130 40 242 46 248 13 13 16
-10 48 -471 32 -455 31 -442 58 -438 27 4 60 92 114 298 19 74 38 139 42 143
5 4 16 -3 25 -17 20 -32 43 -33 56 -3 5 12 23 117 41 232 17 116 35 214 39
219 15 16 19 -96 50 -1364 17 -696 33 -1275 36 -1287 6 -31 42 -31 48 0 3 12
19 504 36 1092 17 589 33 1094 36 1123 5 49 8 53 27 48 12 -3 27 -2 33 2 7 4
22 86 36 182 l24 175 21 -123 c20 -111 26 -128 60 -172 21 -26 55 -80 76 -119
21 -41 44 -71 53 -71 17 0 34 37 60 134 16 62 19 67 30 50 43 -65 35 -63 118
-19 76 40 76 40 107 22 17 -9 36 -17 43 -17 28 0 95 96 112 163 10 37 19 65
21 63 2 -1 12 -49 23 -107 24 -122 34 -149 55 -149 19 0 97 153 121 239 l17
64 24 -84 c20 -71 30 -90 65 -121 59 -55 74 -51 95 25 l18 62 22 -245 c11
-135 24 -341 28 -457 6 -160 11 -216 21 -224 33 -27 41 5 48 193 4 101 15 233
25 293 l17 110 13 -55 c31 -132 31 -131 54 -128 24 3 22 -7 98 400 18 98 34
176 37 174 3 -4 51 -315 52 -338 0 -5 11 -8 24 -8 21 0 27 10 52 80 l28 79 26
-24 c14 -14 33 -25 41 -25 8 0 30 28 48 63 19 34 36 64 37 66 2 2 20 7 41 10
36 6 38 8 54 71 15 57 17 61 19 30 1 -19 14 -177 28 -350 25 -287 29 -315 46
-318 10 -2 22 0 26 5 5 4 19 133 31 285 13 152 25 275 27 273 2 -2 10 -52 18
-112 21 -169 22 -173 45 -173 26 0 28 9 49 153 20 144 23 137 45 -98 23 -243
24 -245 49 -245 36 0 94 89 132 204 26 76 104 454 104 502 0 3 7 4 15 0 11 -4
15 2 15 24 0 27 -3 30 -34 30 -19 0 -37 -4 -40 -8 -3 -4 -21 -100 -40 -212
-35 -199 -93 -406 -119 -429 -10 -8 -19 53 -41 272 -34 348 -35 357 -53 364
-26 10 -35 -14 -57 -168 l-22 -154 -13 105 c-30 235 -34 255 -58 258 -14 2
-23 -3 -26 -15 -3 -10 -13 -121 -23 -247 -11 -142 -21 -218 -25 -200 -4 16
-15 128 -24 249 -18 227 -26 263 -59 236 -8 -7 -29 -73 -46 -147 -32 -133 -32
-134 -60 -134 -35 0 -50 -14 -74 -69 -11 -22 -22 -41 -26 -41 -4 0 -15 11 -24
25 -16 24 -66 36 -66 16 0 -5 -8 -26 -17 -47 l-17 -39 -27 192 c-14 105 -29
199 -32 207 -8 21 -34 20 -45 -1 -5 -10 -33 -142 -62 -293 -29 -151 -55 -282
-57 -290 -3 -8 -15 28 -27 80 -18 78 -25 95 -41 98 -18 3 -20 9 -17 90 2 48
11 320 21 604 l19 516 63 61 c88 84 101 86 158 25 26 -27 56 -62 68 -77 20
-26 30 -30 105 -37 82 -8 83 -7 108 19 l25 27 30 -126 c29 -117 32 -125 55
-125 22 0 26 8 55 124 29 116 44 147 60 122 9 -16 41 -13 55 4 7 8 16 15 20
15 4 0 22 -61 40 -135 26 -114 34 -135 50 -135 26 0 29 6 64 153 37 153 49
169 97 121 27 -27 34 -49 67 -195 31 -137 40 -164 56 -167 28 -6 56 36 56 82
0 38 0 39 -20 21 -11 -10 -20 -14 -20 -9 0 5 -14 67 -30 138 -28 125 -30 131
-73 174 l-45 45 -50 -13 -50 -12 -24 -95 -24 -96 -24 101 c-26 113 -35 121
-90 80 -29 -21 -30 -21 -63 -3 -19 10 -41 16 -49 13 -9 -4 -21 -39 -33 -93
-10 -47 -21 -83 -25 -78 -4 4 -13 31 -19 58 -28 116 -31 125 -51 125 -11 0
-32 -19 -51 -45 l-32 -45 -56 7 c-54 6 -59 9 -131 85 l-75 79 -49 -9 c-39 -8
-59 -20 -102 -63 -29 -29 -55 -51 -57 -48 -2 2 0 65 4 139 5 96 17 180 42 290
19 85 51 254 71 375 20 121 42 243 50 270 l13 50 7 -45 c3 -25 17 -171 31
-325 23 -262 27 -287 61 -388 36 -106 37 -109 78 -127 22 -10 57 -34 75 -54
40 -41 68 -46 76 -13 3 12 20 126 39 252 30 200 37 280 51 620 9 215 20 398
24 409 4 10 15 -161 25 -380 10 -220 20 -407 22 -416 5 -18 39 -25 47 -10 3 4
13 118 23 255 10 136 21 244 24 240 4 -5 15 -136 24 -293 21 -357 22 -362 49
-358 28 4 29 14 53 608 l19 445 21 -462 c12 -254 24 -469 27 -478 4 -8 17 -15
30 -15 14 0 29 -6 34 -12 6 -7 25 -86 43 -175 31 -153 35 -163 56 -163 19 0
24 6 28 43 4 35 67 1803 66 1861 0 15 3 16 15 6 13 -11 15 -7 15 29 0 23 -7
53 -16 66 -17 26 -52 34 -59 13 -3 -10 -37 -884 -66 -1724 -1 -20 -5 -10 -14
30 -13 61 -25 76 -62 76 -17 0 -23 6 -23 23 0 12 -16 355 -35 762 -19 407 -35
741 -35 743 0 1 -11 2 -24 2 -23 0 -25 -5 -30 -62 -3 -35 -12 -234 -21 -443
-8 -209 -18 -432 -22 -495 l-7 -115 -17 250 c-10 138 -18 266 -18 286 -1 41
-27 61 -46 35 -7 -8 -17 -100 -25 -203 -7 -103 -15 -208 -19 -233 -4 -26 -16
169 -30 455 -18 391 -26 503 -37 515 -38 39 -40 16 -78 -780 -31 -635 -41
-791 -61 -920 -39 -246 -33 -225 -55 -205 -10 9 -33 24 -51 33 -29 15 -37 29
-65 113 -29 88 -34 124 -63 450 -44 493 -39 459 -67 459 -18 0 -25 -8 -33 -37
-6 -21 -22 -78 -36 -128 -14 -49 -43 -196 -64 -325 -22 -129 -55 -305 -74
-390 -33 -147 -36 -173 -54 -525 -10 -203 -19 -343 -21 -310 -2 33 -13 305
-25 605 l-22 545 -25 0 c-24 0 -26 -4 -45 -115 -11 -63 -21 -106 -22 -95 -22
187 -59 673 -83 1100 -16 297 -33 564 -36 593 -6 53 -24 76 -45 55 -5 -5 -25
-248 -44 -539 -29 -443 -69 -976 -78 -1034 -1 -8 -13 118 -25 280 -22 279 -27
309 -54 310 -11 0 -88 -102 -93 -124 -2 -12 -18 -208 -35 -436 -17 -228 -32
-419 -33 -423 -1 -5 -26 10 -54 32 -56 45 -68 48 -94 25 -22 -19 -20 -31 -54
346 -32 353 -30 340 -60 340 -14 0 -25 -4 -25 -8 0 -61 -77 -559 -97 -629 -48
-166 -56 -136 -98 342 -34 391 -40 424 -68 425 -18 0 -27 -65 -52 -395 -14
-192 -29 -375 -32 -406 l-6 -56 -28 10 c-18 7 -32 8 -38 2 -5 -6 -15 -161 -22
-345 -10 -252 -15 -318 -20 -265 -4 39 -17 597 -30 1240 -12 644 -25 1174 -30
1179 -8 9 -86 0 -106 -12 -8 -5 -22 -236 -48 -823 -31 -713 -38 -821 -54 -864
l-18 -48 -21 89 c-99 431 -99 431 -137 1073 -20 327 -38 598 -41 602 -3 5 -14
9 -24 9 -14 0 -26 -20 -50 -82 -17 -46 -36 -101 -41 -123 -5 -22 -20 -337 -34
-700 -14 -363 -29 -680 -32 -705 l-6 -45 -11 45 c-13 53 -80 150 -104 150 -9
0 -25 -9 -37 -20 l-20 -19 -29 187 c-30 195 -37 222 -61 222 -21 0 -25 -11
-37 -105 -6 -46 -13 -83 -15 -81 -2 2 -17 306 -33 676 -21 490 -32 675 -41
681 -27 16 -37 -3 -43 -84 -6 -80 -67 -1730 -66 -1794 0 -21 -5 -33 -13 -33
-9 0 -24 48 -47 148 -39 173 -52 192 -90 130 l-20 -33 0 55 c0 48 -55 1457
-62 1585 -3 43 -6 50 -25 53 -11 2 -23 0 -26 -5z m-1563 -175 c3 -46 20 -411
37 -813 l30 -730 41 -63 c22 -34 48 -62 56 -62 9 0 26 12 37 26 l21 26 28
-193 c16 -107 34 -200 41 -207 6 -7 18 -10 27 -7 11 5 23 62 49 245 27 188 37
238 47 231 7 -4 28 -59 47 -121 26 -88 41 -121 67 -147 43 -45 69 -50 114 -23
31 18 50 21 113 18 l76 -3 21 190 c12 105 22 188 24 185 1 -3 12 -97 23 -210
22 -205 22 -205 46 -205 22 0 27 8 45 77 24 89 31 99 40 61 27 -112 37 -134
59 -131 20 3 26 20 59 153 l37 150 20 429 c12 236 22 430 24 432 1 2 11 -212
20 -474 10 -262 20 -514 24 -559 5 -78 7 -83 29 -83 21 0 25 12 62 168 22 92
48 227 58 299 10 73 20 131 22 129 2 -3 12 -67 23 -143 10 -76 21 -144 24
-150 8 -22 44 -15 49 10 3 12 13 222 23 467 11 291 20 426 24 390 4 -30 15
-257 24 -505 8 -247 18 -460 21 -472 7 -37 41 -29 63 15 23 43 23 44 51 -88
31 -144 24 -133 83 -127 28 4 54 10 59 15 5 5 19 280 32 613 13 332 24 586 25
564 10 -290 42 -918 46 -925 3 -6 14 -10 25 -10 20 0 27 32 52 219 6 52 14 88
17 80 2 -8 14 -68 25 -134 24 -137 37 -152 85 -95 l27 32 25 -33 c17 -23 34
-73 53 -158 44 -192 44 -193 69 -189 17 2 23 11 25 38 1 19 18 397 37 840 28
675 42 886 56 850 1 -3 16 -241 34 -530 l33 -525 56 -262 c83 -383 87 -397
112 -401 18 -3 26 11 58 95 l37 98 36 810 c20 446 38 812 40 814 1 2 6 2 9 -2
5 -5 52 -2046 54 -2304 0 -69 -1 -73 -22 -73 -13 0 -29 4 -36 9 -7 4 -28 72
-46 150 -18 78 -38 147 -45 154 -9 9 -16 9 -31 -1 -11 -6 -29 -17 -39 -24 -16
-10 -24 -7 -51 15 -24 20 -42 27 -76 27 -54 0 -54 0 -89 -174 -14 -71 -27
-131 -29 -134 -8 -7 -30 41 -67 142 l-36 100 -50 17 c-27 9 -63 24 -81 33 -17
9 -44 16 -59 16 -17 0 -44 13 -66 31 -45 37 -68 34 -115 -14 -30 -30 -35 -45
-55 -158 l-21 -124 -26 129 c-15 77 -30 131 -38 134 -7 2 -28 -8 -47 -23 l-35
-26 -64 30 c-35 17 -71 31 -79 31 -20 0 -22 -10 -42 -150 -24 -179 -26 -180
-50 -22 -12 79 -26 147 -32 150 -5 4 -26 18 -47 31 l-38 24 -41 -23 c-89 -50
-125 -88 -143 -151 -9 -33 -19 -58 -21 -56 -2 3 -15 71 -29 153 -14 81 -27
151 -30 156 -3 4 -14 8 -24 8 -14 0 -24 -18 -45 -82 -15 -46 -31 -86 -34 -91
-4 -4 -16 2 -26 13 -24 27 -43 25 -75 -5 l-27 -25 -27 50 c-37 68 -58 67 -93
-5 -28 -57 -42 -66 -64 -39 -14 18 -39 15 -109 -11 l-45 -17 -41 47 -40 47
-55 -10 c-30 -6 -67 -10 -84 -9 -27 2 -33 -3 -56 -53 l-27 -55 -27 55 c-29 59
-77 100 -117 100 -13 0 -40 -15 -60 -33 -37 -32 -38 -32 -69 -207 -44 -241
-49 -243 -94 -47 -15 67 -31 130 -36 139 -5 9 -23 19 -41 23 -18 4 -52 25 -75
47 -37 37 -45 40 -77 34 l-36 -7 0 53 c1 150 21 404 34 417 16 16 15 18 46
-119 12 -52 24 -103 26 -112 6 -21 102 -54 116 -40 8 8 77 1679 78 1900 0 82
18 61 24 -30z m4221 -1438 c20 -206 39 -378 41 -382 8 -13 41 -9 47 5 3 8 8
40 12 71 4 31 10 54 14 51 3 -4 8 -77 11 -162 l5 -156 -27 -29 c-16 -17 -28
-34 -28 -39 0 -16 -18 -10 -24 9 -3 9 -16 30 -29 45 -41 52 -53 32 -78 -135
l-23 -150 -23 142 c-28 180 -38 189 -108 98 -20 -27 -44 -48 -55 -48 -12 0
-29 19 -49 55 -42 74 -59 72 -101 -7 -18 -35 -34 -64 -35 -66 -1 -1 -28 7 -59
19 -51 20 -62 21 -93 10 -19 -7 -36 -11 -37 -9 -2 1 -17 24 -35 51 -18 26 -37
47 -44 47 -19 0 -91 -52 -120 -85 l-25 -30 -24 21 c-29 27 -104 74 -118 74 -6
0 -25 -20 -42 -45 -26 -37 -38 -45 -57 -43 l-25 3 3 130 c3 127 10 170 25 146
10 -15 46 -14 51 2 4 10 43 464 46 538 1 13 11 -87 24 -223 l22 -247 43 -51
c46 -55 66 -62 80 -27 28 67 75 259 90 375 10 74 20 135 22 137 2 2 14 -105
26 -237 13 -133 25 -245 28 -250 10 -15 38 -8 65 18 l27 25 68 -45 c37 -25 71
-46 75 -46 21 0 30 66 62 477 20 249 40 460 45 469 13 23 16 -7 47 -416 14
-184 28 -354 31 -378 5 -43 26 -64 45 -45 14 14 110 1162 120 1443 1 19 12
-138 25 -350 13 -212 39 -554 59 -760z m-5830 70 c19 -217 37 -419 40 -447 l6
-53 59 0 59 0 5 53 c3 28 15 207 26 396 11 189 21 346 23 347 2 2 11 -92 21
-209 12 -139 30 -275 54 -397 36 -181 38 -185 62 -185 23 0 26 6 45 93 11 50
22 92 26 92 3 0 15 -42 25 -92 19 -87 21 -93 44 -93 24 0 26 6 52 135 14 74
39 206 54 292 15 87 29 157 30 155 1 -1 12 -96 23 -212 29 -284 29 -285 51
-285 10 0 22 5 25 10 4 6 16 122 27 258 11 136 22 254 26 262 3 8 13 -48 23
-125 10 -77 35 -211 55 -297 35 -147 39 -158 60 -158 27 0 26 -2 73 215 24
113 33 195 48 420 10 154 19 269 20 255 1 -14 9 -158 18 -320 8 -162 22 -420
31 -573 l16 -279 -29 -54 -28 -54 -26 78 c-22 66 -29 77 -50 80 -17 1 -31 -7
-49 -32 l-25 -34 -65 54 c-35 30 -70 54 -76 54 -7 0 -24 -14 -37 -30 -14 -17
-28 -30 -30 -30 -2 0 -16 18 -31 40 -15 24 -34 40 -45 40 -12 0 -44 -27 -77
-65 l-57 -64 -34 29 c-18 17 -38 30 -43 30 -4 0 -22 -11 -38 -25 -36 -30 -36
-30 -72 -4 -16 12 -35 19 -43 16 -8 -3 -22 -48 -37 -116 -13 -61 -24 -110 -26
-108 -1 1 -12 36 -23 76 -22 79 -31 91 -71 91 -21 0 -31 12 -59 66 -19 36 -40
68 -48 71 -18 7 -40 -12 -47 -40 -3 -13 -13 -41 -22 -62 l-16 -39 -25 42 c-29
49 -41 51 -80 18 l-29 -25 -30 24 c-16 13 -36 24 -46 25 -17 0 -79 -70 -117
-132 -12 -21 -24 -38 -26 -38 -2 0 -13 15 -24 34 -29 46 -97 71 -152 55 -61
-19 -84 -7 -121 64 -18 34 -41 63 -51 65 -10 2 -33 -10 -53 -27 -28 -25 -41
-30 -62 -25 -15 4 -27 7 -28 8 0 1 5 105 10 231 10 195 13 227 24 208 12 -22
46 -31 56 -15 3 5 13 79 22 165 10 86 20 154 22 152 2 -2 14 -120 26 -263 13
-142 26 -263 29 -269 4 -6 27 -16 52 -22 42 -10 49 -9 76 10 l31 21 33 -32
c40 -39 62 -35 69 12 3 18 13 242 23 498 12 307 20 445 24 405 4 -33 15 -249
24 -480 9 -231 21 -424 26 -430 13 -14 41 6 50 36 5 13 16 51 25 84 l17 60 22
-65 c19 -56 25 -65 46 -65 23 0 26 8 61 159 34 147 39 184 58 485 11 179 23
346 27 371 6 41 8 34 20 -65 7 -60 28 -288 48 -505z m669 -752 c15 -21 33 -38
40 -38 8 0 28 16 45 36 l31 35 66 -55 c36 -31 69 -56 74 -56 4 0 20 13 33 30
l25 30 22 -68 c24 -73 45 -112 60 -112 6 0 19 14 29 30 20 33 17 78 36 -570
l4 -155 -22 220 c-21 213 -23 220 -45 223 -12 2 -24 -3 -27 -10 -2 -7 -18
-227 -35 -488 -17 -261 -33 -476 -35 -478 -1 -2 -7 11 -13 27 -8 23 -17 31
-36 31 -19 0 -27 -8 -36 -35 -6 -19 -15 -35 -19 -35 -5 0 -19 61 -32 136 -13
75 -29 144 -35 152 -18 25 -42 7 -71 -53 -26 -52 -44 -67 -58 -45 -3 6 -17 10
-30 10 -17 0 -26 -7 -30 -22 -3 -13 -13 -61 -24 -108 -20 -93 -22 -92 -46 22
-29 134 -61 129 -90 -14 -10 -49 -21 -88 -25 -88 -3 0 -12 28 -19 63 -25 126
-30 139 -54 135 -19 -3 -24 -14 -38 -88 -9 -47 -17 -71 -18 -55 0 17 -13 268
-27 558 l-27 528 28 132 c16 73 30 134 31 136 2 2 12 -3 22 -12 26 -23 45 -21
72 8 l24 25 31 -30 c17 -16 38 -30 46 -30 9 0 42 28 75 63 32 35 61 60 65 57
3 -3 17 -22 33 -42z m2151 -278 c8 -13 32 -13 41 1 4 6 22 61 40 122 35 115
44 129 121 176 32 20 32 20 55 -2 21 -20 27 -48 57 -252 18 -126 37 -234 41
-238 4 -5 16 -7 26 -5 16 3 23 34 52 238 18 129 35 236 37 239 2 2 30 -11 61
-29 l57 -32 26 20 27 20 28 -162 c15 -88 30 -171 33 -183 5 -24 37 -32 48 -12
4 5 22 96 42 202 41 227 53 250 111 208 15 -10 45 -21 68 -24 43 -7 155 -54
165 -69 3 -5 19 -46 34 -91 32 -92 106 -200 134 -195 12 3 24 41 51 173 40
193 43 197 110 143 41 -32 42 -32 71 -16 l29 17 9 -37 c5 -20 20 -82 33 -137
22 -94 25 -100 53 -109 17 -6 32 -11 33 -12 2 -1 8 -111 13 -244 9 -233 8
-242 -11 -262 -59 -63 -68 -89 -95 -258 -14 -91 -28 -177 -31 -193 l-6 -28
-20 26 c-11 14 -26 25 -34 25 -19 0 -27 -23 -69 -189 -49 -195 -51 -200 -59
-121 -4 36 -18 220 -32 409 -14 190 -27 348 -30 353 -11 17 -41 6 -80 -30
l-40 -38 -24 -169 c-25 -176 -26 -178 -55 -72 -13 49 -19 58 -36 55 -27 -4
-89 -153 -123 -296 -14 -57 -27 -106 -29 -108 -2 -2 -12 12 -23 31 -20 39 -38
44 -66 18 -10 -9 -20 -14 -21 -12 -2 2 -16 114 -31 249 -15 135 -30 260 -33
278 -6 35 -27 52 -44 35 -6 -6 -25 -77 -44 -159 -33 -145 -47 -174 -82 -174
-20 0 -29 -27 -54 -167 -13 -73 -26 -133 -29 -133 -20 0 -37 120 -69 475 -36
395 -36 400 -59 403 -12 2 -24 -3 -26 -10 -3 -7 -14 -146 -25 -308 -12 -162
-24 -322 -28 -355 l-6 -60 -18 100 c-10 55 -18 101 -18 103 -1 1 -12 2 -25 2
-22 0 -25 -7 -47 -120 -13 -66 -26 -120 -29 -120 -11 0 -37 109 -75 302 -18
98 -36 182 -40 188 -3 5 -14 10 -25 10 -14 0 -21 -14 -33 -67 -8 -38 -25 -113
-37 -169 -13 -56 -30 -111 -40 -123 -16 -23 -17 -21 -46 81 -25 86 -33 104
-51 106 -20 3 -36 -26 -65 -118 -2 -8 -15 26 -27 75 -35 140 -50 146 -110 48
-63 -103 -90 -130 -137 -137 -29 -5 -52 -18 -78 -45 -35 -36 -39 -45 -64 -180
-15 -77 -29 -141 -32 -141 -4 0 -14 16 -23 35 -19 39 -32 43 -65 19 -13 -9
-25 -14 -27 -12 -2 2 -17 34 -34 71 -35 78 -60 88 -87 35 -10 -18 -19 -28 -20
-23 -2 6 -15 78 -29 160 -33 189 -30 182 -68 194 -32 11 -33 13 -66 149 -19
75 -38 145 -43 155 -11 22 -106 25 -114 3 -3 -8 -20 -111 -37 -228 l-32 -214
-28 16 c-26 14 -29 14 -41 -2 -7 -10 -24 -65 -36 -123 -13 -58 -26 -105 -29
-105 -3 0 -14 14 -23 30 -9 17 -24 30 -33 30 -12 0 -15 16 -15 98 0 67 37
1231 40 1270 0 1 8 2 17 2 9 0 32 -14 50 -32 18 -18 47 -37 65 -43 31 -10 32
-13 67 -155 l36 -145 52 -3 c42 -2 54 0 61 15 5 10 24 98 43 197 29 157 36
180 57 194 21 14 25 13 48 -4 14 -10 40 -53 59 -94 47 -105 64 -106 111 -6 34
75 35 76 72 76 20 0 46 2 57 5 15 4 29 -6 54 -40 32 -43 36 -45 70 -39 20 3
53 12 74 20 36 14 40 13 71 -11 48 -36 62 -32 92 27 l26 52 15 -30 c18 -34 43
-64 54 -64 4 0 22 15 38 32 l30 33 35 -34 c19 -19 41 -31 48 -28 8 3 23 33 33
68 l19 63 27 -162 c15 -88 30 -166 34 -172z m-3504 201 c30 -7 58 -7 81 0 51
14 82 -2 120 -60 33 -51 52 -66 69 -56 5 4 27 36 49 73 22 37 49 78 60 90 l20
24 29 -21 c36 -26 59 -26 86 -1 l20 19 30 -55 c41 -75 61 -71 96 20 l26 68 24
-43 c19 -33 32 -45 59 -52 35 -8 35 -8 65 -120 l30 -112 -32 -453 c-17 -250
-34 -460 -37 -467 -5 -14 -86 -70 -90 -63 -1 2 -17 99 -34 217 -18 117 -35
217 -38 222 -3 5 -14 9 -24 9 -23 0 -24 -3 -50 -275 -25 -258 -32 -284 -50
-203 -19 84 -49 87 -85 8 -10 -22 -21 -40 -24 -40 -14 0 -48 107 -81 259 -36
162 -53 202 -79 176 -5 -6 -22 -83 -37 -172 l-27 -162 -23 50 c-13 27 -29 49
-37 49 -8 0 -31 -25 -51 -55 -51 -78 -66 -74 -107 26 -54 132 -72 122 -118
-66 -21 -86 -44 -150 -66 -190 l-35 -60 0 50 c-1 86 40 1296 46 1373 6 71 6
72 34 72 15 0 38 9 51 19 l24 19 30 -54 c27 -48 34 -54 76 -63z m5819 59 c18
-27 36 -50 41 -50 4 0 24 8 44 17 34 16 38 16 103 -5 38 -12 74 -22 80 -22 6
0 23 23 38 52 l26 51 29 -46 c16 -26 33 -47 38 -47 25 0 95 33 111 52 11 13
19 20 20 16 0 -4 14 -90 30 -191 17 -102 30 -188 30 -191 0 -3 11 -6 24 -6 19
0 26 7 30 28 8 39 56 352 56 365 0 7 9 -3 20 -20 22 -36 53 -43 69 -15 8 14
10 15 15 2 2 -8 9 -204 16 -435 6 -231 13 -434 16 -451 3 -25 0 -33 -14 -36
-14 -4 -25 -32 -47 -112 -16 -58 -32 -106 -36 -106 -15 0 -29 31 -59 135 -17
61 -34 118 -36 128 -4 12 -13 17 -27 15 -18 -2 -27 -19 -50 -88 -15 -47 -39
-116 -54 -155 l-27 -70 -30 150 c-28 134 -33 150 -52 153 -23 3 -26 -4 -80
-193 -9 -33 -29 -74 -43 -90 l-27 -31 -32 19 -32 19 -67 -36 c-37 -20 -67 -35
-68 -33 -83 125 -89 125 -128 -3 l-29 -95 -21 40 c-11 22 -35 58 -53 81 -31
38 -35 53 -69 244 -20 112 -38 207 -41 212 -3 4 -14 8 -24 8 -24 0 -22 9 -60
-269 -16 -123 -31 -225 -33 -227 -1 -1 -15 0 -31 3 l-28 6 6 116 c3 64 11 301
16 526 6 226 13 439 16 473 5 59 7 63 27 58 27 -6 34 -1 70 47 32 42 40 41
107 -19 20 -19 46 -34 56 -34 11 0 35 20 54 44 29 37 46 51 76 65 1 1 16 -21
34 -49z"/>
</g>
</svg>
